<?xml version="1.0" encoding="UTF-8"?>
<svg width="240px" height="50px" viewBox="0 0 240 50" version="1.1" xmlns="http://www.w3.org/2000/svg" xmlns:xlink="http://www.w3.org/1999/xlink">
    <!-- Generator: Sketch 53.1 (72631) - https://sketchapp.com -->
    <title>logo-lendingpoint-wide</title>
    <desc>Created with Sketch.</desc>
    <defs>
        <polygon id="path-1" points="0.50848249 0.567825028 34.5060249 0.567825028 34.5060249 35.2789018 0.50848249 35.2789018"></polygon>
    </defs>
    <g id="logo-lendingpoint-wide" stroke="none" stroke-width="1" fill="none" fill-rule="evenodd">
        <g id="Page-1" transform="translate(10.000000, 5.000000)">
            <g id="Group-3" transform="translate(0.000000, 0.272321)" fill="#003267">
                <path d="M17.3948093,29.1408476 L18.3244591,25.9648914 L5.6209572,25.9648914 C5.14842802,25.9648914 4.91729961,25.5860614 5.03885603,25.1660724 L12.2337977,0.584120598 C10.5816576,0.74371639 8.92523735,2.08432104 8.45270817,3.69959845 L0.128661479,32.1471283 C-0.375540856,33.8699229 0.648272374,35.2794058 2.40313619,35.2794058 L15.598,35.2794058 L17.3948093,29.1408476 Z" id="Fill-1"></path>
            </g>
            <g id="Group-6" transform="translate(12.840467, 0.272321)">
                <mask id="mask-2" fill="white">
                    <use xlink:href="#path-1"></use>
                </mask>
                <g id="Clip-5"></g>
                <path d="M32.1020233,0.567657032 L6.12918288,0.567657032 L0.50848249,19.7796305 L2.11268482,19.7796305 L2.11097276,19.7863503 L13.9772763,19.7863503 L12.7771206,23.891322 L25.628716,16.3575607 L17.1856809,8.82295936 L15.8648249,13.3361604 L9.17922179,13.3361604 L10.7508949,7.96534197 C10.8733074,7.54535305 11.3270039,7.16568306 11.7995331,7.16568306 L22.1335409,7.16568306 C27.4092607,7.16568306 30.5089494,11.3739721 29.0185992,16.4650779 C27.4914397,21.6830203 21.917821,25.9324682 16.6849027,25.9324682 L12.182179,25.9324682 L11.2439689,29.1411836 L11.247393,29.1411836 L9.45058366,35.2789018 L21.945214,35.2789018 C23.7009339,35.2789018 25.5491051,33.8694189 26.0533074,32.1474643 L34.3773541,3.69909446 C34.8815564,1.97713987 33.8585992,0.567657032 32.1020233,0.567657032" id="Fill-4" fill="#EA6E26" mask="url(#mask-2)"></path>
            </g>
            <path d="M55.8008171,12.2522529 C55.8701556,12.0145392 56.126965,11.7995049 56.3931907,11.7995049 L59.2805837,11.7995049 C59.5236965,11.7995049 59.6786381,12.0145392 59.6084436,12.2522529 L55.8898444,24.9644777 L61.6637743,24.9644777 C61.930856,24.9644777 62.0609728,25.1786721 61.9916342,25.4163858 L61.2331907,28.0119174 C61.1629961,28.2496311 60.9070428,28.4638255 60.6391051,28.4638255 L51.5180934,28.4638255 C51.2510117,28.4638255 51.1183268,28.2496311 51.1885214,28.0119174 L55.8008171,12.2522529 Z" id="Fill-7" fill="#003267"></path>
            <path d="M67.7234475,12.2522529 C67.792786,12.0145392 68.0495953,11.7995049 68.315821,11.7995049 L78.3604903,11.7995049 C78.626716,11.7995049 78.7585447,12.0145392 78.6892062,12.2522529 L77.9299066,14.8469445 C77.8605681,15.0846583 77.6037588,15.2996926 77.335821,15.2996926 L70.6168327,15.2996926 L69.7522412,18.2513748 L75.2839144,18.2513748 C75.5261712,18.2513748 75.6819689,18.4655691 75.6126304,18.7032828 L74.8533307,21.2979744 C74.7754319,21.5600475 74.502358,21.7507225 74.2601012,21.7507225 L68.728428,21.7507225 L67.7876498,24.9644777 L74.5083502,24.9644777 C74.7745759,24.9644777 74.9064047,25.1786721 74.8370661,25.4163858 L74.0777665,28.0119174 C74.007572,28.2496311 73.7516187,28.4638255 73.4836809,28.4638255 L63.4407237,28.4638255 C63.173642,28.4638255 63.0409572,28.2496311 63.1111518,28.0119174 L67.7234475,12.2522529 Z" id="Fill-9" fill="#003267"></path>
            <path d="M80.7804047,11.9901798 C80.8497432,11.7524661 81.1228171,11.5617911 81.366786,11.5617911 L81.972856,11.5617911 L88.9777588,20.7032701 L89.0017276,20.7032701 L91.4756576,12.2522529 C91.5441401,12.0145392 91.8018054,11.7995049 92.0688872,11.7995049 L94.980249,11.7995049 C95.2225058,11.7995049 95.3783035,12.0145392 95.308965,12.2522529 L90.6204825,28.2731505 C90.551144,28.5117042 90.276358,28.7015392 90.0341012,28.7015392 L89.645463,28.7015392 C89.5727004,28.7015392 89.3989261,28.6301411 89.3646848,28.5822623 L82.5472529,19.1316715 L82.522428,19.1316715 L79.9252296,28.0119174 C79.8558911,28.2496311 79.5990817,28.4638255 79.332,28.4638255 L76.444607,28.4638255 C76.2014942,28.4638255 76.0465525,28.2496311 76.1167471,28.0119174 L80.7804047,11.9901798 Z" id="Fill-11" fill="#003267"></path>
            <path d="M99.9324747,24.9405384 C102.674342,24.9405384 105.283525,22.8221142 106.077922,20.1081458 C106.864615,17.4176967 105.494965,15.2992726 102.753953,15.2992726 L100.424693,15.2992726 L97.603214,24.9405384 L99.9324747,24.9405384 Z M97.5313074,12.2526729 C97.6006459,12.0141192 97.8583113,11.7999249 98.0997121,11.7999249 L104.019167,11.7999249 C108.702514,11.7999249 111.441813,15.5378263 110.104693,20.1081458 C108.753019,24.726344 103.82656,28.4634055 99.14407,28.4634055 L93.2246148,28.4634055 C92.982358,28.4634055 92.8505292,28.2500511 92.9198677,28.0114974 L97.5313074,12.2526729 Z" id="Fill-13" fill="#003267"></path>
            <path d="M114.520101,12.2522529 C114.58944,12.0145392 114.871074,11.7995049 115.112475,11.7995049 L118.024693,11.7995049 C118.266949,11.7995049 118.422747,12.0145392 118.353409,12.2522529 L113.741969,28.0119174 C113.671774,28.2496311 113.390996,28.4638255 113.147027,28.4638255 L110.237377,28.4638255 C109.994265,28.4638255 109.838467,28.2496311 109.908661,28.0119174 L114.520101,12.2522529 Z" id="Fill-15" fill="#003267"></path>
            <path d="M120.627626,11.9901798 C120.696965,11.7524661 120.970895,11.5617911 121.214864,11.5617911 L121.820934,11.5617911 L128.824981,20.7032701 L128.849805,20.7032701 L131.322879,12.2522529 C131.392218,12.0145392 131.649027,11.7995049 131.916965,11.7995049 L134.827471,11.7995049 C135.069728,11.7995049 135.226381,12.0145392 135.156187,12.2522529 L130.467704,28.2731505 C130.39751,28.5117042 130.124436,28.7015392 129.882179,28.7015392 L129.492685,28.7015392 C129.419922,28.7015392 129.247004,28.6301411 129.212763,28.5822623 L122.395331,19.1316715 L122.370506,19.1316715 L119.772451,28.0119174 C119.703113,28.2496311 119.445447,28.4638255 119.180078,28.4638255 L116.292685,28.4638255 C116.049572,28.4638255 115.89463,28.2496311 115.963969,28.0119174 L120.627626,11.9901798 Z" id="Fill-17" fill="#003267"></path>
            <path d="M146.177331,11.5857305 C148.215541,11.5857305 150.203245,12.4189885 151.441922,13.8234315 C151.611416,13.9897471 151.55235,14.2761796 151.302389,14.4660146 L148.80021,16.4660018 C148.557953,16.6323174 148.291728,16.6323174 148.138498,16.4895212 C147.460521,15.6562632 146.482934,15.3471513 145.294763,15.3471513 C142.650482,15.3471513 139.87523,17.5369736 139.108226,20.1560245 C138.34807,22.7507161 139.881222,24.8926596 142.526358,24.8926596 C143.22916,24.8926596 143.984179,24.7977421 144.796553,24.5121497 L145.199743,23.1312261 L143.672584,23.1312261 C143.405502,23.1312261 143.266825,22.9413911 143.336163,22.7028374 L144.026125,20.3466995 C144.103167,20.0846264 144.353128,19.8939514 144.619354,19.8939514 L149.496163,19.8939514 C149.73842,19.8939514 149.869393,20.1081458 149.799198,20.3466995 L147.950171,26.7498507 C147.91593,26.8691275 147.763556,27.0589625 147.645424,27.1312006 C147.645424,27.1312006 144.692973,28.6784398 141.175541,28.6784398 C136.348381,28.6784398 133.567136,24.917019 134.959899,20.1560245 C136.352661,15.3950301 141.349315,11.5857305 146.177331,11.5857305" id="Fill-19" fill="#003267"></path>
            <path d="M158.068117,18.9417525 C159.111619,18.9417525 160.221891,18.1320139 160.535198,17.0610421 C160.827961,16.0614685 160.177377,15.2996086 159.133875,15.2996086 L156.82944,15.2996086 L155.762825,18.9417525 L158.068117,18.9417525 Z M153.936054,12.2521689 C154.006249,12.0144552 154.262202,11.8002609 154.529284,11.8002609 L160.375977,11.8002609 C163.360101,11.8002609 165.113253,14.1807581 164.270918,17.0610421 C163.406327,20.0127243 160.253564,22.4175809 157.293409,22.4175809 L154.74586,22.4175809 L153.109128,28.0118334 C153.03979,28.2495471 152.759012,28.4637415 152.515899,28.4637415 L149.653331,28.4637415 C149.385393,28.4637415 149.255276,28.2495471 149.324615,28.0118334 L153.936054,12.2521689 Z" id="Fill-21" fill="#EA6E26"></path>
            <path d="M171.893362,24.8929116 C174.561611,24.8929116 177.371105,22.7509681 178.130405,20.1554365 C178.898265,17.5372256 177.348848,15.3709227 174.679743,15.3709227 C172.035463,15.3709227 169.218265,17.5372256 168.451261,20.1554365 C167.691961,22.7509681 169.248226,24.8929116 171.893362,24.8929116 M175.794296,11.5616231 C180.64628,11.5616231 183.406125,15.3944421 182.012506,20.1554365 C180.618887,24.917271 175.629938,28.7022112 170.777953,28.7022112 C165.925969,28.7022112 163.175541,24.917271 164.56916,20.1554365 C165.962778,15.3944421 170.942311,11.5616231 175.794296,11.5616231" id="Fill-23" fill="#EA6E26"></path>
            <path d="M186.049634,12.2522529 C186.118973,12.0145392 186.400607,11.7995049 186.642008,11.7995049 L189.554226,11.7995049 C189.796482,11.7995049 189.95228,12.0145392 189.882942,12.2522529 L185.271502,28.0119174 C185.201307,28.2496311 184.920529,28.4638255 184.67656,28.4638255 L181.766911,28.4638255 C181.523798,28.4638255 181.367144,28.2496311 181.437339,28.0119174 L186.049634,12.2522529 Z" id="Fill-25" fill="#EA6E26"></path>
            <path d="M191.788553,11.9901798 C191.857891,11.7524661 192.130965,11.5617911 192.374934,11.5617911 L192.981004,11.5617911 L199.985907,20.7032701 L200.009875,20.7032701 L202.483805,12.2522529 C202.553144,12.0145392 202.809953,11.7995049 203.077035,11.7995049 L205.987541,11.7995049 C206.230654,11.7995049 206.386451,12.0145392 206.316257,12.2522529 L201.62863,28.2731505 C201.558436,28.5117042 201.284506,28.7015392 201.042249,28.7015392 L200.652755,28.7015392 C200.580848,28.7015392 200.407074,28.6301411 200.373689,28.5822623 L193.555401,19.1316715 L193.531432,19.1316715 L190.933377,28.0119174 C190.864039,28.2496311 190.606374,28.4638255 190.340148,28.4638255 L187.452755,28.4638255 C187.209642,28.4638255 187.0547,28.2496311 187.124039,28.0119174 L191.788553,11.9901798 Z" id="Fill-27" fill="#EA6E26"></path>
            <path d="M210.569447,15.2996086 L207.099953,15.2996086 C206.832872,15.2996086 206.701899,15.0854142 206.771237,14.8468605 L207.530537,12.2521689 C207.600732,12.0144552 207.857541,11.8002609 208.123767,11.8002609 L218.896062,11.8002609 C219.162288,11.8002609 219.294117,12.0144552 219.224778,12.2521689 L218.465479,14.8468605 C218.395284,15.0854142 218.138475,15.2996086 217.871393,15.2996086 L214.403611,15.2996086 L210.682444,28.0118334 C210.613105,28.2495471 210.331471,28.4637415 210.089214,28.4637415 L207.177852,28.4637415 C206.935595,28.4637415 206.779798,28.2495471 206.849136,28.0118334 L210.569447,15.2996086 Z" id="Fill-29" fill="#EA6E26"></path>
            <polygon id="Fill-31" fill="#231F20" points="214.297891 28.3398447 214.297891 26.7186875 213.708086 26.7186875 213.708086 26.3885762 215.288319 26.3885762 215.288319 26.7186875 214.69937 26.7186875 214.69937 28.3398447"></polygon>
            <polygon id="Fill-33" fill="#231F20" points="215.54179 28.3398447 215.54179 26.3885762 216.142724 26.3885762 216.503113 27.7199411 216.860078 26.3885762 217.462724 26.3885762 217.462724 28.3398447 217.089494 28.3398447 217.089494 26.8035252 216.694864 28.3398447 216.307938 28.3398447 215.915019 26.8035252 215.915019 28.3398447"></polygon>
        </g>
    </g>
</svg>