<?xml version="1.0" encoding="UTF-8"?>
<svg width="169px" height="197px" viewBox="0 0 169 197" version="1.1" xmlns="http://www.w3.org/2000/svg" xmlns:xlink="http://www.w3.org/1999/xlink">
    <!-- Generator: Sketch 49.3 (51167) - http://www.bohemiancoding.com/sketch -->
    <title>Group</title>
    <desc>Created with Sketch.</desc>
    <defs>
        <circle id="path-1" cx="100" cy="100" r="100"></circle>
    </defs>
    <g id="Page-1" stroke="none" stroke-width="1" fill="none" fill-rule="evenodd">
        <g id="Group" transform="translate(-11.000000, -2.000000)">
            <mask id="mask-2" fill="white">
                <use xlink:href="#path-1"></use>
            </mask>
            <g id="Oval"></g>
            <path d="M72,141.314446 L67.8413918,155.869965 L53.9938341,201.531519 L0.756202388,184 C-7.09812215,184 -32.6187338,169.316319 -30.3621362,161.422078 L0.756202388,36 C-7.25546319,10.0101287 46.6009177,-8.28907047 53.9938341,-9.02258633 L12.5540091,137.65283 C12.0035833,139.580545 13.0436062,141.314446 15.1533247,141.314446 L72,141.314446 Z M190.252324,17.9277521 L190.252324,25 C198.100828,25 212.630847,28.1094585 210.376348,36 L199.220883,173.641446 C196.967866,181.531987 175.673663,200.512768 145.68705,200.512768 L78.853052,213.753709 L96.9981609,155.883147 L101.194406,141.18841 L121.326301,141.18841 C144.716177,141.18841 169.64018,121.722094 176.465933,97.8224709 C183.127157,74.5010403 169.269618,55.2254681 145.68705,55.2254681 L99.4838912,55.2254681 C97.3731697,55.2254681 95.343972,56.9600461 94.7940579,58.8883484 L87.7682015,83.4883597 L117.659218,83.4883597 L123.564495,62.816482 L161.311428,97.3277287 L103.850594,131.837485 L109.22078,113.032812 L56.1740812,113.003008 L49,113.003008 L84.3277805,-20.8271168 L190.252324,17.9277521 Z" id="Combined-Shape" stroke="#FFFFFF" stroke-width="2" stroke-linecap="round" stroke-linejoin="round" mask="url(#mask-2)" fill-rule="nonzero"></path>
        </g>
    </g>
</svg>