<?xml version="1.0" encoding="UTF-8" standalone="no"?>
<svg width="31px" height="31px" viewBox="0 0 31 31" version="1.1" xmlns="http://www.w3.org/2000/svg" xmlns:xlink="http://www.w3.org/1999/xlink">
    <!-- Generator: Sketch 48.2 (47327) - http://www.bohemiancoding.com/sketch -->
    <title>Page 1</title>
    <desc>Created with Sketch.</desc>
    <defs></defs>
    <g id="Page-1" stroke="none" stroke-width="1" fill="none" fill-rule="evenodd">
        <g>
            <path d="M15.5,30.5 C7.22,30.5 0.5,23.78 0.5,15.5 C0.5,7.22 7.22,0.5 15.5,0.5 C23.78,0.5 30.5,7.22 30.5,15.5 C30.5,23.78 23.78,30.5 15.5,30.5" id="Fill-1" fill="#003267"></path>
            <path d="M15.5,30.5 C7.22,30.5 0.5,23.78 0.5,15.5 C0.5,7.22 7.22,0.5 15.5,0.5 C23.78,0.5 30.5,7.22 30.5,15.5 C30.5,23.78 23.78,30.5 15.5,30.5 Z" id="Stroke-3" stroke="#003267" stroke-linecap="round" stroke-linejoin="round"></path>
            <path d="M14.77,20.0898 C14.72,20.1898 14.67,20.2798 14.59,20.3598 C14.37,20.5898 14.07,20.6898 13.77,20.6798 C13.47,20.6898 13.17,20.5898 12.95,20.3598 C12.87,20.2798 12.82,20.1898 12.77,20.0898 L8.33,15.6498 C7.9,15.2298 7.9,14.5298 8.33,14.0998 C8.76,13.6698 9.45,13.6698 9.88,14.0998 L13.77,17.9898 L21.12,10.6398 C21.55,10.2098 22.24,10.2098 22.67,10.6398 C23.1,11.0698 23.1,11.7598 22.67,12.1898 L14.77,20.0898 Z" id="Fill-5" fill="#FFFFFF"></path>
        </g>
    </g>
</svg>