<svg width="32" height="18" viewBox="0 0 32 18" fill="none" xmlns="http://www.w3.org/2000/svg">
<path d="M16 17.6777C16.4395 17.6777 16.8789 17.502 17.1777 17.168L30.7832 3.22852C31.082 2.92969 31.2578 2.54297 31.2578 2.10352C31.2578 1.18945 30.5723 0.486328 29.6582 0.486328C29.2188 0.486328 28.8145 0.662109 28.5156 0.943359L16 13.7402L3.4668 0.943359C3.18555 0.662109 2.78125 0.486328 2.32422 0.486328C1.41016 0.486328 0.724609 1.18945 0.724609 2.10352C0.724609 2.54297 0.900391 2.92969 1.19922 3.24609L14.8047 17.168C15.1387 17.502 15.543 17.6777 16 17.6777Z" fill="#3356D7"/>
</svg>
