<svg width="24" height="48" viewBox="0 0 24 48" fill="none" xmlns="http://www.w3.org/2000/svg">
<path fill-rule="evenodd" clip-rule="evenodd" d="M16.7688 9.23964C17.0771 9.55916 17.0771 10.0772 16.7688 10.3967L12.5582 14.7604C12.2499 15.0799 11.7501 15.0799 11.4418 14.7604L7.23123 10.3967C6.92292 10.0772 6.92292 9.55916 7.23123 9.23964C7.53954 8.92012 8.03941 8.92012 8.34772 9.23964L12 13.0247L15.6523 9.23964C15.9606 8.92012 16.4605 8.92012 16.7688 9.23964Z" fill="#193059"/>
<path fill-rule="evenodd" clip-rule="evenodd" d="M16.7688 38.7604C17.0771 38.4408 17.0771 37.9228 16.7688 37.6033L12.5582 33.2396C12.2499 32.9201 11.7501 32.9201 11.4418 33.2396L7.23123 37.6033C6.92292 37.9228 6.92292 38.4408 7.23123 38.7604C7.53954 39.0799 8.03941 39.0799 8.34772 38.7604L12 34.9753L15.6523 38.7604C15.9606 39.0799 16.4605 39.0799 16.7688 38.7604Z" fill="#C84A12"/>
</svg>
