<svg width="28" height="28" viewBox="0 0 28 28" fill="none" xmlns="http://www.w3.org/2000/svg">
<path fill-rule="evenodd" clip-rule="evenodd" d="M15.8174 6.45665C14.8018 5.48206 13.1982 5.48206 12.1825 6.45665L6.78502 11.6359C6.65277 11.7628 6.56382 11.9281 6.53076 12.1083C5.88427 15.6338 5.83655 19.2431 6.3896 22.7844L6.52088 23.625H9.99341V16.3785C9.99341 15.8952 10.3852 15.5035 10.8684 15.5035H17.1316C17.6148 15.5035 18.0066 15.8952 18.0066 16.3785V23.625H21.4791L21.6104 22.7844C22.1634 19.2431 22.1157 15.6338 21.4692 12.1083C21.4362 11.9281 21.3472 11.7628 21.215 11.6359L15.8174 6.45665ZM10.9709 5.19394C12.6637 3.56963 15.3363 3.56963 17.0291 5.19394L22.4266 10.3732C22.8239 10.7544 23.0912 11.2511 23.1905 11.7927C23.8725 15.5116 23.9228 19.3188 23.3394 23.0545L23.1285 24.4048C23.0413 24.9633 22.5603 25.375 21.9951 25.375H17.1316C16.6483 25.375 16.2566 24.9833 16.2566 24.5V17.2535H11.7434V24.5C11.7434 24.9833 11.3517 25.375 10.8684 25.375H6.0049C5.43967 25.375 4.95867 24.9633 4.87145 24.4048L4.66056 23.0545C4.07717 19.3188 4.12751 15.5116 4.80946 11.7927C4.90878 11.2511 5.17605 10.7544 5.57338 10.3732L10.9709 5.19394Z" fill="#EB6226"/>
</svg>
